<mxfile host="app.diagrams.net" modified="2024-06-04T00:36:08.253Z" agent="Mozilla/5.0 (Macintosh; Intel Mac OS X 10_15_7) AppleWebKit/537.36 (KHTML, like Gecko) Chrome/125.0.0.0 Safari/537.36" version="24.4.13" etag="Ox6r5PvPeIjV89NeYzYf" type="github">
  <diagram name="第 1 页" id="70-pSHRcytaemtcIG35F">
    <mxGraphModel>
      <root>
        <mxCell id="0" />
        <mxCell id="1" parent="0" />
      </root>
    </mxGraphModel>
  </diagram>
</mxfile>
